<svg width="220" height="49" viewBox="0 0 220 49" fill="none" xmlns="http://www.w3.org/2000/svg">
<path d="M70.9412 23.488L67.3412 14.16C67.2345 13.8827 67.1225 13.5627 67.0052 13.2C66.8879 12.8267 66.7759 12.432 66.6692 12.016C66.4452 12.88 66.2159 13.6 65.9812 14.176L62.3812 23.488H70.9412ZM77.4052 32H75.0052C74.7279 32 74.5039 31.9307 74.3332 31.792C74.1625 31.6533 74.0345 31.4773 73.9492 31.264L71.8052 25.728H61.5172L59.3732 31.264C59.3092 31.456 59.1865 31.6267 59.0052 31.776C58.8239 31.9253 58.5999 32 58.3332 32H55.9332L65.1012 9.072H68.2372L77.4052 32ZM82.5509 28.096C83.0736 28.8 83.6443 29.296 84.2629 29.584C84.8923 29.872 85.5803 30.016 86.3269 30.016C87.8523 30.016 89.0203 29.4773 89.8309 28.4C90.6416 27.3227 91.0469 25.7173 91.0469 23.584C91.0469 21.6 90.6843 20.144 89.9589 19.216C89.2443 18.2773 88.2203 17.808 86.8869 17.808C85.9589 17.808 85.1483 18.0213 84.4549 18.448C83.7723 18.8747 83.1376 19.4773 82.5509 20.256V28.096ZM82.5509 18.128C83.2336 17.3387 84.0016 16.7093 84.8549 16.24C85.7189 15.7707 86.7109 15.536 87.8309 15.536C88.7803 15.536 89.6336 15.7173 90.3909 16.08C91.1589 16.4427 91.8096 16.9707 92.3429 17.664C92.8763 18.3467 93.2816 19.1787 93.5589 20.16C93.8469 21.1413 93.9909 22.2453 93.9909 23.472C93.9909 24.784 93.8309 25.9787 93.5109 27.056C93.1909 28.1333 92.7269 29.056 92.1189 29.824C91.5216 30.5813 90.7909 31.1733 89.9269 31.6C89.0629 32.016 88.0923 32.224 87.0149 32.224C85.9483 32.224 85.0469 32.0267 84.3109 31.632C83.5856 31.2267 82.9509 30.656 82.4069 29.92L82.2629 31.392C82.1776 31.7973 81.9323 32 81.5269 32H79.6869V8.432H82.5509V18.128ZM104.425 15.536C105.609 15.536 106.676 15.7333 107.625 16.128C108.575 16.5227 109.385 17.0827 110.057 17.808C110.729 18.5333 111.241 19.4133 111.593 20.448C111.956 21.472 112.137 22.6187 112.137 23.888C112.137 25.168 111.956 26.32 111.593 27.344C111.241 28.368 110.729 29.2427 110.057 29.968C109.385 30.6933 108.575 31.2533 107.625 31.648C106.676 32.032 105.609 32.224 104.425 32.224C103.231 32.224 102.153 32.032 101.193 31.648C100.244 31.2533 99.4332 30.6933 98.7612 29.968C98.0892 29.2427 97.5719 28.368 97.2092 27.344C96.8572 26.32 96.6812 25.168 96.6812 23.888C96.6812 22.6187 96.8572 21.472 97.2092 20.448C97.5719 19.4133 98.0892 18.5333 98.7612 17.808C99.4332 17.0827 100.244 16.5227 101.193 16.128C102.153 15.7333 103.231 15.536 104.425 15.536ZM104.425 30C106.025 30 107.22 29.4667 108.009 28.4C108.799 27.3227 109.193 25.824 109.193 23.904C109.193 21.9733 108.799 20.4693 108.009 19.392C107.22 18.3147 106.025 17.776 104.425 17.776C103.615 17.776 102.905 17.9147 102.297 18.192C101.7 18.4693 101.199 18.8693 100.793 19.392C100.399 19.9147 100.1 20.56 99.8972 21.328C99.7052 22.0853 99.6092 22.944 99.6092 23.904C99.6092 25.824 100.004 27.3227 100.793 28.4C101.593 29.4667 102.804 30 104.425 30ZM129.077 15.792V32H127.381C126.976 32 126.72 31.8027 126.613 31.408L126.389 29.664C125.685 30.4427 124.896 31.072 124.021 31.552C123.147 32.0213 122.144 32.256 121.013 32.256C120.128 32.256 119.344 32.112 118.661 31.824C117.989 31.5253 117.424 31.1093 116.965 30.576C116.507 30.0427 116.16 29.3973 115.925 28.64C115.701 27.8827 115.589 27.0453 115.589 26.128V15.792H118.437V26.128C118.437 27.3547 118.715 28.304 119.269 28.976C119.835 29.648 120.693 29.984 121.845 29.984C122.688 29.984 123.472 29.7867 124.197 29.392C124.933 28.9867 125.611 28.432 126.229 27.728V15.792H129.077ZM138.569 32.256C137.289 32.256 136.303 31.8987 135.609 31.184C134.927 30.4693 134.585 29.44 134.585 28.096V18.176H132.633C132.463 18.176 132.319 18.128 132.201 18.032C132.084 17.9253 132.025 17.7653 132.025 17.552V16.416L134.681 16.08L135.337 11.072C135.369 10.912 135.439 10.784 135.545 10.688C135.663 10.5813 135.812 10.528 135.993 10.528H137.433V16.112H142.121V18.176H137.433V27.904C137.433 28.5867 137.599 29.0933 137.929 29.424C138.26 29.7547 138.687 29.92 139.209 29.92C139.508 29.92 139.764 29.8827 139.977 29.808C140.201 29.7227 140.393 29.632 140.553 29.536C140.713 29.44 140.847 29.3547 140.953 29.28C141.071 29.1947 141.172 29.152 141.257 29.152C141.407 29.152 141.54 29.2427 141.657 29.424L142.489 30.784C141.999 31.2427 141.407 31.6053 140.713 31.872C140.02 32.128 139.305 32.256 138.569 32.256Z" fill="white"/>
<path d="M179.051 8.688V32H174.283V18.592C174.283 18.2827 174.289 17.9467 174.299 17.584C174.321 17.2213 174.353 16.8533 174.395 16.48L168.203 28.464C168.011 28.8373 167.75 29.12 167.419 29.312C167.099 29.504 166.731 29.6 166.315 29.6H165.579C165.163 29.6 164.79 29.504 164.459 29.312C164.139 29.12 163.883 28.8373 163.691 28.464L157.499 16.448C157.531 16.832 157.558 17.2107 157.579 17.584C157.601 17.9467 157.611 18.2827 157.611 18.592V32H152.843V8.688H156.971C157.206 8.688 157.409 8.69333 157.579 8.704C157.761 8.71467 157.921 8.74667 158.059 8.8C158.198 8.85333 158.321 8.93867 158.427 9.056C158.545 9.16267 158.657 9.31733 158.763 9.52L164.763 21.344C164.977 21.7493 165.179 22.1707 165.371 22.608C165.574 23.0453 165.766 23.4933 165.947 23.952C166.129 23.4827 166.315 23.024 166.507 22.576C166.71 22.128 166.923 21.7013 167.147 21.296L173.131 9.52C173.238 9.31733 173.345 9.16267 173.451 9.056C173.569 8.93867 173.697 8.85333 173.835 8.8C173.974 8.74667 174.129 8.71467 174.299 8.704C174.481 8.69333 174.689 8.688 174.923 8.688H179.051ZM192.806 21.712C192.806 21.3173 192.753 20.9333 192.646 20.56C192.55 20.1867 192.385 19.856 192.15 19.568C191.926 19.2693 191.627 19.0293 191.254 18.848C190.881 18.6667 190.427 18.576 189.894 18.576C188.955 18.576 188.219 18.848 187.686 19.392C187.153 19.9253 186.801 20.6987 186.63 21.712H192.806ZM186.566 24.592C186.726 25.9787 187.147 26.9867 187.83 27.616C188.513 28.2347 189.393 28.544 190.47 28.544C191.046 28.544 191.542 28.4747 191.958 28.336C192.374 28.1973 192.742 28.0427 193.062 27.872C193.393 27.7013 193.691 27.5467 193.958 27.408C194.235 27.2693 194.523 27.2 194.822 27.2C195.217 27.2 195.515 27.344 195.718 27.632L197.158 29.408C196.646 29.9947 196.091 30.4747 195.494 30.848C194.907 31.2107 194.299 31.4987 193.67 31.712C193.051 31.9147 192.427 32.0533 191.798 32.128C191.179 32.2133 190.587 32.256 190.022 32.256C188.859 32.256 187.766 32.0693 186.742 31.696C185.729 31.312 184.838 30.7467 184.07 30C183.313 29.2533 182.71 28.3253 182.262 27.216C181.825 26.1067 181.606 24.816 181.606 23.344C181.606 22.2347 181.793 21.184 182.166 20.192C182.55 19.2 183.094 18.3307 183.798 17.584C184.513 16.8373 185.371 16.2453 186.374 15.808C187.387 15.3707 188.529 15.152 189.798 15.152C190.897 15.152 191.899 15.3227 192.806 15.664C193.723 16.0053 194.507 16.5013 195.158 17.152C195.819 17.8027 196.331 18.6027 196.694 19.552C197.067 20.4907 197.254 21.5573 197.254 22.752C197.254 23.1253 197.238 23.4293 197.206 23.664C197.174 23.8987 197.115 24.0853 197.03 24.224C196.945 24.3627 196.827 24.4587 196.678 24.512C196.539 24.5653 196.358 24.592 196.134 24.592H186.566Z" fill="#E38898"/>
<path d="M30.1476 1H2.3394C1.60806 1 1.0152 1.58398 1.0152 2.30435V29.6957C1.0152 30.416 1.60806 31 2.3394 31H30.1476C30.879 31 31.4719 30.416 31.4719 29.6957V2.30435C31.4719 1.58398 30.879 1 30.1476 1Z" stroke="#E38898" stroke-width="2" stroke-linecap="round" stroke-linejoin="round"/>
<path d="M39.2847 16H11.4764C10.7451 16 10.1522 16.584 10.1522 17.3043V44.6957C10.1522 45.416 10.7451 46 11.4764 46H39.2847C40.016 46 40.6089 45.416 40.6089 44.6957V17.3043C40.6089 16.584 40.016 16 39.2847 16Z" stroke="#E38898" stroke-width="2" stroke-linecap="round" stroke-linejoin="round"/>
<line y1="-1" x2="92.3887" y2="-1" transform="matrix(-0.999962 0.00873445 -0.00900236 -0.99996 219.288 38)" stroke="#E38898" stroke-width="2"/>
</svg>
