<svg width="211" height="49" viewBox="0 0 211 49" fill="none" xmlns="http://www.w3.org/2000/svg">
<path d="M74.846 27.264C75.0167 27.264 75.166 27.3333 75.294 27.472L76.526 28.8C75.5874 29.888 74.446 30.736 73.102 31.344C71.7687 31.952 70.1527 32.256 68.254 32.256C66.6114 32.256 65.118 31.9733 63.774 31.408C62.43 30.832 61.2834 30.032 60.334 29.008C59.3847 27.9733 58.6487 26.736 58.126 25.296C57.6034 23.856 57.342 22.272 57.342 20.544C57.342 18.816 57.614 17.232 58.158 15.792C58.702 14.352 59.4647 13.1147 60.446 12.08C61.438 11.0453 62.622 10.2453 63.998 9.68C65.374 9.104 66.894 8.816 68.558 8.816C70.19 8.816 71.63 9.07733 72.878 9.6C74.126 10.1227 75.2247 10.832 76.174 11.728L75.15 13.152C75.086 13.2587 75.0007 13.3493 74.894 13.424C74.798 13.488 74.6647 13.52 74.494 13.52C74.302 13.52 74.0674 13.4187 73.79 13.216C73.5127 13.0027 73.15 12.768 72.702 12.512C72.254 12.256 71.694 12.0267 71.022 11.824C70.35 11.6107 69.5234 11.504 68.542 11.504C67.358 11.504 66.2754 11.712 65.294 12.128C64.3127 12.5333 63.4647 13.1253 62.75 13.904C62.046 14.6827 61.4967 15.632 61.102 16.752C60.7074 17.872 60.51 19.136 60.51 20.544C60.51 21.9733 60.7127 23.248 61.118 24.368C61.534 25.488 62.094 26.4373 62.798 27.216C63.5127 27.984 64.35 28.5707 65.31 28.976C66.2807 29.3813 67.326 29.584 68.446 29.584C69.1287 29.584 69.742 29.5467 70.286 29.472C70.8407 29.3867 71.3474 29.2587 71.806 29.088C72.2754 28.9173 72.7074 28.704 73.102 28.448C73.5074 28.1813 73.9074 27.8667 74.302 27.504C74.4834 27.344 74.6647 27.264 74.846 27.264ZM85.9725 15.536C87.1565 15.536 88.2232 15.7333 89.1725 16.128C90.1219 16.5227 90.9325 17.0827 91.6045 17.808C92.2765 18.5333 92.7885 19.4133 93.1405 20.448C93.5032 21.472 93.6845 22.6187 93.6845 23.888C93.6845 25.168 93.5032 26.32 93.1405 27.344C92.7885 28.368 92.2765 29.2427 91.6045 29.968C90.9325 30.6933 90.1219 31.2533 89.1725 31.648C88.2232 32.032 87.1565 32.224 85.9725 32.224C84.7779 32.224 83.7005 32.032 82.7405 31.648C81.7912 31.2533 80.9805 30.6933 80.3085 29.968C79.6365 29.2427 79.1192 28.368 78.7565 27.344C78.4045 26.32 78.2285 25.168 78.2285 23.888C78.2285 22.6187 78.4045 21.472 78.7565 20.448C79.1192 19.4133 79.6365 18.5333 80.3085 17.808C80.9805 17.0827 81.7912 16.5227 82.7405 16.128C83.7005 15.7333 84.7779 15.536 85.9725 15.536ZM85.9725 30C87.5725 30 88.7672 29.4667 89.5565 28.4C90.3459 27.3227 90.7405 25.824 90.7405 23.904C90.7405 21.9733 90.3459 20.4693 89.5565 19.392C88.7672 18.3147 87.5725 17.776 85.9725 17.776C85.1619 17.776 84.4525 17.9147 83.8445 18.192C83.2472 18.4693 82.7459 18.8693 82.3405 19.392C81.9459 19.9147 81.6472 20.56 81.4445 21.328C81.2525 22.0853 81.1565 22.944 81.1565 23.904C81.1565 25.824 81.5512 27.3227 82.3405 28.4C83.1405 29.4667 84.3512 30 85.9725 30ZM99.9848 18.144C100.337 17.7493 100.71 17.392 101.105 17.072C101.499 16.752 101.915 16.48 102.353 16.256C102.801 16.0213 103.27 15.8453 103.761 15.728C104.262 15.6 104.801 15.536 105.377 15.536C106.262 15.536 107.041 15.6853 107.713 15.984C108.395 16.272 108.961 16.688 109.409 17.232C109.867 17.7653 110.214 18.4107 110.449 19.168C110.683 19.9253 110.801 20.7627 110.801 21.68V32H107.937V21.68C107.937 20.4533 107.654 19.504 107.089 18.832C106.534 18.1493 105.686 17.808 104.545 17.808C103.702 17.808 102.913 18.0107 102.177 18.416C101.451 18.8213 100.779 19.3707 100.161 20.064V32H97.2968V15.792H99.0088C99.4141 15.792 99.6648 15.9893 99.7608 16.384L99.9848 18.144ZM119.898 32.256C118.618 32.256 117.631 31.8987 116.938 31.184C116.255 30.4693 115.914 29.44 115.914 28.096V18.176H113.962C113.791 18.176 113.647 18.128 113.53 18.032C113.412 17.9253 113.354 17.7653 113.354 17.552V16.416L116.01 16.08L116.666 11.072C116.698 10.912 116.767 10.784 116.874 10.688C116.991 10.5813 117.14 10.528 117.322 10.528H118.762V16.112H123.45V18.176H118.762V27.904C118.762 28.5867 118.927 29.0933 119.258 29.424C119.588 29.7547 120.015 29.92 120.538 29.92C120.836 29.92 121.092 29.8827 121.306 29.808C121.53 29.7227 121.722 29.632 121.882 29.536C122.042 29.44 122.175 29.3547 122.282 29.28C122.399 29.1947 122.5 29.152 122.586 29.152C122.735 29.152 122.868 29.2427 122.986 29.424L123.818 30.784C123.327 31.2427 122.735 31.6053 122.042 31.872C121.348 32.128 120.634 32.256 119.898 32.256ZM135.175 24.704C133.863 24.7467 132.743 24.8533 131.815 25.024C130.897 25.184 130.145 25.3973 129.559 25.664C128.983 25.9307 128.561 26.2453 128.295 26.608C128.039 26.9707 127.911 27.376 127.911 27.824C127.911 28.2507 127.98 28.6187 128.119 28.928C128.257 29.2373 128.444 29.4933 128.679 29.696C128.924 29.888 129.207 30.032 129.527 30.128C129.857 30.2133 130.209 30.256 130.583 30.256C131.084 30.256 131.543 30.208 131.959 30.112C132.375 30.0053 132.764 29.856 133.127 29.664C133.5 29.472 133.852 29.2427 134.183 28.976C134.524 28.7093 134.855 28.4053 135.175 28.064V24.704ZM125.975 18.08C126.871 17.216 127.836 16.5707 128.871 16.144C129.905 15.7173 131.052 15.504 132.311 15.504C133.217 15.504 134.023 15.6533 134.727 15.952C135.431 16.2507 136.023 16.6667 136.503 17.2C136.983 17.7333 137.345 18.3787 137.591 19.136C137.836 19.8933 137.959 20.7253 137.959 21.632V32H136.695C136.417 32 136.204 31.9573 136.055 31.872C135.905 31.776 135.788 31.5947 135.703 31.328L135.383 29.792C134.956 30.1867 134.54 30.5387 134.135 30.848C133.729 31.1467 133.303 31.4027 132.855 31.616C132.407 31.8187 131.927 31.9733 131.415 32.08C130.913 32.1973 130.353 32.256 129.735 32.256C129.105 32.256 128.513 32.1707 127.959 32C127.404 31.8187 126.919 31.552 126.503 31.2C126.097 30.848 125.772 30.4053 125.527 29.872C125.292 29.328 125.175 28.688 125.175 27.952C125.175 27.312 125.351 26.6987 125.703 26.112C126.055 25.5147 126.625 24.9867 127.415 24.528C128.204 24.0693 129.233 23.696 130.503 23.408C131.772 23.1093 133.329 22.9387 135.175 22.896V21.632C135.175 20.3733 134.903 19.424 134.359 18.784C133.815 18.1333 133.02 17.808 131.975 17.808C131.271 17.808 130.679 17.8987 130.199 18.08C129.729 18.2507 129.319 18.448 128.967 18.672C128.625 18.8853 128.327 19.0827 128.071 19.264C127.825 19.4347 127.58 19.52 127.335 19.52C127.143 19.52 126.977 19.472 126.839 19.376C126.7 19.2693 126.583 19.1413 126.487 18.992L125.975 18.08ZM153.577 18.672C153.491 18.7893 153.406 18.88 153.321 18.944C153.235 19.008 153.118 19.04 152.969 19.04C152.809 19.04 152.633 18.976 152.441 18.848C152.249 18.7093 152.009 18.56 151.721 18.4C151.443 18.24 151.097 18.096 150.681 17.968C150.275 17.8293 149.774 17.76 149.177 17.76C148.377 17.76 147.673 17.904 147.065 18.192C146.457 18.4693 145.945 18.8747 145.529 19.408C145.123 19.9413 144.814 20.5867 144.601 21.344C144.398 22.1013 144.297 22.9493 144.297 23.888C144.297 24.8693 144.409 25.744 144.633 26.512C144.857 27.2693 145.171 27.9093 145.577 28.432C145.993 28.944 146.489 29.3387 147.065 29.616C147.651 29.8827 148.307 30.016 149.033 30.016C149.726 30.016 150.297 29.936 150.745 29.776C151.193 29.6053 151.561 29.4187 151.849 29.216C152.147 29.0133 152.393 28.832 152.585 28.672C152.787 28.5013 152.985 28.416 153.177 28.416C153.411 28.416 153.593 28.5067 153.721 28.688L154.521 29.728C154.169 30.1653 153.769 30.5387 153.321 30.848C152.873 31.1573 152.387 31.4187 151.865 31.632C151.353 31.8347 150.814 31.984 150.249 32.08C149.683 32.176 149.107 32.224 148.521 32.224C147.507 32.224 146.563 32.0373 145.689 31.664C144.825 31.2907 144.073 30.752 143.433 30.048C142.793 29.3333 142.291 28.4587 141.929 27.424C141.566 26.3893 141.385 25.2107 141.385 23.888C141.385 22.6827 141.55 21.568 141.881 20.544C142.222 19.52 142.713 18.64 143.353 17.904C144.003 17.1573 144.798 16.576 145.737 16.16C146.686 15.744 147.774 15.536 149.001 15.536C150.142 15.536 151.145 15.7227 152.009 16.096C152.883 16.4587 153.657 16.976 154.329 17.648L153.577 18.672ZM162.554 32.256C161.274 32.256 160.287 31.8987 159.594 31.184C158.911 30.4693 158.57 29.44 158.57 28.096V18.176H156.618C156.447 18.176 156.303 18.128 156.186 18.032C156.069 17.9253 156.01 17.7653 156.01 17.552V16.416L158.666 16.08L159.322 11.072C159.354 10.912 159.423 10.784 159.53 10.688C159.647 10.5813 159.797 10.528 159.978 10.528H161.418V16.112H166.106V18.176H161.418V27.904C161.418 28.5867 161.583 29.0933 161.914 29.424C162.245 29.7547 162.671 29.92 163.194 29.92C163.493 29.92 163.749 29.8827 163.962 29.808C164.186 29.7227 164.378 29.632 164.538 29.536C164.698 29.44 164.831 29.3547 164.938 29.28C165.055 29.1947 165.157 29.152 165.242 29.152C165.391 29.152 165.525 29.2427 165.642 29.424L166.474 30.784C165.983 31.2427 165.391 31.6053 164.698 31.872C164.005 32.128 163.29 32.256 162.554 32.256Z" fill="white"/>
<path d="M30.1325 1H2.3242C1.59287 1 1 1.58398 1 2.30435V29.6957C1 30.416 1.59287 31 2.3242 31H30.1325C30.8638 31 31.4567 30.416 31.4567 29.6957V2.30435C31.4567 1.58398 30.8638 1 30.1325 1Z" stroke="#E38898" stroke-width="2" stroke-linecap="round" stroke-linejoin="round"/>
<path d="M39.2694 16H11.4612C10.7298 16 10.137 16.584 10.137 17.3043V44.6957C10.137 45.416 10.7298 46 11.4612 46H39.2694C40.0007 46 40.5936 45.416 40.5936 44.6957V17.3043C40.5936 16.584 40.0007 16 39.2694 16Z" stroke="#E38898" stroke-width="2" stroke-linecap="round" stroke-linejoin="round"/>
<line y1="-1" x2="92.3887" y2="-1" transform="matrix(-0.999962 0.00873445 -0.00900236 -0.99996 184.755 39)" stroke="#E38898" stroke-width="2"/>
</svg>
