<svg width="211" height="49" viewBox="0 0 211 49" fill="none" xmlns="http://www.w3.org/2000/svg">
<path d="M73.6054 29.472L73.5894 32H59.4614V9.072H73.5894V11.6H62.5654V19.216H71.4934V21.648H62.5654V29.472H73.6054ZM87.1307 19.648C86.5973 18.9333 86.0213 18.4373 85.4027 18.16C84.784 17.872 84.0907 17.728 83.3227 17.728C81.8187 17.728 80.6613 18.2667 79.8507 19.344C79.04 20.4213 78.6347 21.9573 78.6347 23.952C78.6347 25.008 78.7253 25.9147 78.9067 26.672C79.088 27.4187 79.3547 28.0373 79.7067 28.528C80.0587 29.008 80.4907 29.36 81.0027 29.584C81.5147 29.808 82.096 29.92 82.7467 29.92C83.6853 29.92 84.5013 29.7067 85.1947 29.28C85.8987 28.8533 86.544 28.2507 87.1307 27.472V19.648ZM89.9787 8.432V32H88.2827C87.8773 32 87.6213 31.8027 87.5147 31.408L87.2587 29.44C86.5653 30.272 85.776 30.944 84.8907 31.456C84.0053 31.968 82.9813 32.224 81.8187 32.224C80.8907 32.224 80.048 32.048 79.2907 31.696C78.5333 31.3333 77.888 30.8053 77.3547 30.112C76.8213 29.4187 76.4107 28.5547 76.1227 27.52C75.8347 26.4853 75.6907 25.296 75.6907 23.952C75.6907 22.7573 75.8507 21.648 76.1707 20.624C76.4907 19.5893 76.9493 18.6933 77.5467 17.936C78.144 17.1787 78.8747 16.5867 79.7387 16.16C80.6133 15.7227 81.5947 15.504 82.6827 15.504C83.6747 15.504 84.5227 15.6747 85.2267 16.016C85.9413 16.3467 86.576 16.8107 87.1307 17.408V8.432H89.9787ZM107.805 15.792V32H106.109C105.704 32 105.448 31.8027 105.341 31.408L105.117 29.664C104.413 30.4427 103.624 31.072 102.749 31.552C101.874 32.0213 100.872 32.256 99.7409 32.256C98.8556 32.256 98.0716 32.112 97.3889 31.824C96.7169 31.5253 96.1516 31.1093 95.6929 30.576C95.2343 30.0427 94.8876 29.3973 94.6529 28.64C94.4289 27.8827 94.3169 27.0453 94.3169 26.128V15.792H97.1649V26.128C97.1649 27.3547 97.4423 28.304 97.9969 28.976C98.5623 29.648 99.4209 29.984 100.573 29.984C101.416 29.984 102.2 29.7867 102.925 29.392C103.661 28.9867 104.338 28.432 104.957 27.728V15.792H107.805ZM123.601 18.672C123.515 18.7893 123.43 18.88 123.345 18.944C123.259 19.008 123.142 19.04 122.993 19.04C122.833 19.04 122.657 18.976 122.465 18.848C122.273 18.7093 122.033 18.56 121.745 18.4C121.467 18.24 121.121 18.096 120.705 17.968C120.299 17.8293 119.798 17.76 119.201 17.76C118.401 17.76 117.697 17.904 117.089 18.192C116.481 18.4693 115.969 18.8747 115.553 19.408C115.147 19.9413 114.838 20.5867 114.625 21.344C114.422 22.1013 114.321 22.9493 114.321 23.888C114.321 24.8693 114.433 25.744 114.657 26.512C114.881 27.2693 115.195 27.9093 115.601 28.432C116.017 28.944 116.513 29.3387 117.089 29.616C117.675 29.8827 118.331 30.016 119.057 30.016C119.75 30.016 120.321 29.936 120.769 29.776C121.217 29.6053 121.585 29.4187 121.873 29.216C122.171 29.0133 122.417 28.832 122.609 28.672C122.811 28.5013 123.009 28.416 123.201 28.416C123.435 28.416 123.617 28.5067 123.745 28.688L124.545 29.728C124.193 30.1653 123.793 30.5387 123.345 30.848C122.897 31.1573 122.411 31.4187 121.889 31.632C121.377 31.8347 120.838 31.984 120.273 32.08C119.707 32.176 119.131 32.224 118.545 32.224C117.531 32.224 116.587 32.0373 115.713 31.664C114.849 31.2907 114.097 30.752 113.457 30.048C112.817 29.3333 112.315 28.4587 111.953 27.424C111.59 26.3893 111.409 25.2107 111.409 23.888C111.409 22.6827 111.574 21.568 111.905 20.544C112.246 19.52 112.737 18.64 113.377 17.904C114.027 17.1573 114.822 16.576 115.761 16.16C116.71 15.744 117.798 15.536 119.025 15.536C120.166 15.536 121.169 15.7227 122.033 16.096C122.907 16.4587 123.681 16.976 124.353 17.648L123.601 18.672ZM136.386 24.704C135.074 24.7467 133.954 24.8533 133.026 25.024C132.109 25.184 131.357 25.3973 130.77 25.664C130.194 25.9307 129.773 26.2453 129.506 26.608C129.25 26.9707 129.122 27.376 129.122 27.824C129.122 28.2507 129.191 28.6187 129.33 28.928C129.469 29.2373 129.655 29.4933 129.89 29.696C130.135 29.888 130.418 30.032 130.738 30.128C131.069 30.2133 131.421 30.256 131.794 30.256C132.295 30.256 132.754 30.208 133.17 30.112C133.586 30.0053 133.975 29.856 134.338 29.664C134.711 29.472 135.063 29.2427 135.394 28.976C135.735 28.7093 136.066 28.4053 136.386 28.064V24.704ZM127.186 18.08C128.082 17.216 129.047 16.5707 130.082 16.144C131.117 15.7173 132.263 15.504 133.522 15.504C134.429 15.504 135.234 15.6533 135.938 15.952C136.642 16.2507 137.234 16.6667 137.714 17.2C138.194 17.7333 138.557 18.3787 138.802 19.136C139.047 19.8933 139.17 20.7253 139.17 21.632V32H137.906C137.629 32 137.415 31.9573 137.266 31.872C137.117 31.776 136.999 31.5947 136.914 31.328L136.594 29.792C136.167 30.1867 135.751 30.5387 135.346 30.848C134.941 31.1467 134.514 31.4027 134.066 31.616C133.618 31.8187 133.138 31.9733 132.626 32.08C132.125 32.1973 131.565 32.256 130.946 32.256C130.317 32.256 129.725 32.1707 129.17 32C128.615 31.8187 128.13 31.552 127.714 31.2C127.309 30.848 126.983 30.4053 126.738 29.872C126.503 29.328 126.386 28.688 126.386 27.952C126.386 27.312 126.562 26.6987 126.914 26.112C127.266 25.5147 127.837 24.9867 128.626 24.528C129.415 24.0693 130.445 23.696 131.714 23.408C132.983 23.1093 134.541 22.9387 136.386 22.896V21.632C136.386 20.3733 136.114 19.424 135.57 18.784C135.026 18.1333 134.231 17.808 133.186 17.808C132.482 17.808 131.89 17.8987 131.41 18.08C130.941 18.2507 130.53 18.448 130.178 18.672C129.837 18.8853 129.538 19.0827 129.282 19.264C129.037 19.4347 128.791 19.52 128.546 19.52C128.354 19.52 128.189 19.472 128.05 19.376C127.911 19.2693 127.794 19.1413 127.698 18.992L127.186 18.08ZM158.329 32H155.481V18.176H147.129V27.904C147.129 28.5867 147.295 29.0933 147.625 29.424C147.956 29.7547 148.383 29.92 148.905 29.92C149.204 29.92 149.46 29.8827 149.673 29.808C149.897 29.7227 150.089 29.632 150.249 29.536C150.409 29.44 150.543 29.3547 150.649 29.28C150.767 29.1947 150.868 29.152 150.953 29.152C151.103 29.152 151.236 29.2427 151.353 29.424L152.185 30.784C151.695 31.2427 151.103 31.6053 150.409 31.872C149.716 32.128 149.001 32.256 148.265 32.256C146.985 32.256 145.999 31.8987 145.305 31.184C144.623 30.4693 144.281 29.44 144.281 28.096V18.176H142.329C142.159 18.176 142.015 18.128 141.897 18.032C141.78 17.9253 141.721 17.7653 141.721 17.552V16.416L144.377 16.064L145.033 11.072C145.065 10.912 145.135 10.784 145.241 10.688C145.359 10.5813 145.508 10.528 145.689 10.528H147.129V16.112H158.329V32ZM159.033 10.592C159.033 10.8693 158.975 11.1307 158.857 11.376C158.751 11.6107 158.601 11.8187 158.409 12C158.228 12.1813 158.015 12.3253 157.769 12.432C157.524 12.5387 157.263 12.592 156.985 12.592C156.708 12.592 156.447 12.5387 156.201 12.432C155.967 12.3253 155.759 12.1813 155.577 12C155.396 11.8187 155.252 11.6107 155.145 11.376C155.039 11.1307 154.985 10.8693 154.985 10.592C154.985 10.3147 155.039 10.0533 155.145 9.808C155.252 9.552 155.396 9.33333 155.577 9.152C155.759 8.96 155.967 8.81067 156.201 8.704C156.447 8.59733 156.708 8.544 156.985 8.544C157.263 8.544 157.524 8.59733 157.769 8.704C158.015 8.81067 158.228 8.96 158.409 9.152C158.601 9.33333 158.751 9.552 158.857 9.808C158.975 10.0533 159.033 10.3147 159.033 10.592ZM169.84 15.536C171.024 15.536 172.091 15.7333 173.04 16.128C173.99 16.5227 174.8 17.0827 175.472 17.808C176.144 18.5333 176.656 19.4133 177.008 20.448C177.371 21.472 177.552 22.6187 177.552 23.888C177.552 25.168 177.371 26.32 177.008 27.344C176.656 28.368 176.144 29.2427 175.472 29.968C174.8 30.6933 173.99 31.2533 173.04 31.648C172.091 32.032 171.024 32.224 169.84 32.224C168.646 32.224 167.568 32.032 166.608 31.648C165.659 31.2533 164.848 30.6933 164.176 29.968C163.504 29.2427 162.987 28.368 162.624 27.344C162.272 26.32 162.096 25.168 162.096 23.888C162.096 22.6187 162.272 21.472 162.624 20.448C162.987 19.4133 163.504 18.5333 164.176 17.808C164.848 17.0827 165.659 16.5227 166.608 16.128C167.568 15.7333 168.646 15.536 169.84 15.536ZM169.84 30C171.44 30 172.635 29.4667 173.424 28.4C174.214 27.3227 174.608 25.824 174.608 23.904C174.608 21.9733 174.214 20.4693 173.424 19.392C172.635 18.3147 171.44 17.776 169.84 17.776C169.03 17.776 168.32 17.9147 167.712 18.192C167.115 18.4693 166.614 18.8693 166.208 19.392C165.814 19.9147 165.515 20.56 165.312 21.328C165.12 22.0853 165.024 22.944 165.024 23.904C165.024 25.824 165.419 27.3227 166.208 28.4C167.008 29.4667 168.219 30 169.84 30ZM183.852 18.144C184.204 17.7493 184.578 17.392 184.972 17.072C185.367 16.752 185.783 16.48 186.22 16.256C186.668 16.0213 187.138 15.8453 187.628 15.728C188.13 15.6 188.668 15.536 189.244 15.536C190.13 15.536 190.908 15.6853 191.58 15.984C192.263 16.272 192.828 16.688 193.276 17.232C193.735 17.7653 194.082 18.4107 194.316 19.168C194.551 19.9253 194.668 20.7627 194.668 21.68V32H191.804V21.68C191.804 20.4533 191.522 19.504 190.956 18.832C190.402 18.1493 189.554 17.808 188.412 17.808C187.57 17.808 186.78 18.0107 186.044 18.416C185.319 18.8213 184.647 19.3707 184.028 20.064V32H181.164V15.792H182.876C183.282 15.792 183.532 15.9893 183.628 16.384L183.852 18.144Z" fill="white"/>
<path d="M30.8439 1H3.03563C2.30429 1 1.71143 1.58398 1.71143 2.30435V29.6957C1.71143 30.416 2.30429 31 3.03563 31H30.8439C31.5752 31 32.1681 30.416 32.1681 29.6957V2.30435C32.1681 1.58398 31.5752 1 30.8439 1Z" stroke="#E38898" stroke-width="2" stroke-linecap="round" stroke-linejoin="round"/>
<path d="M39.9809 16H12.1727C11.4413 16 10.8484 16.584 10.8484 17.3043V44.6957C10.8484 45.416 11.4413 46 12.1727 46H39.9809C40.7122 46 41.3051 45.416 41.3051 44.6957V17.3043C41.3051 16.584 40.7122 16 39.9809 16Z" stroke="#E38898" stroke-width="2" stroke-linecap="round" stroke-linejoin="round"/>
<line y1="-1" x2="92.3887" y2="-1" transform="matrix(-0.999962 0.00873445 -0.00900236 -0.99996 185.467 39)" stroke="#E38898" stroke-width="2"/>
</svg>
