<svg width="65" height="65" viewBox="0 0 65 65" fill="none" xmlns="http://www.w3.org/2000/svg">
<path d="M26.4062 44.6875C30.8936 44.6875 34.5312 41.0498 34.5312 36.5625C34.5312 32.0752 30.8936 28.4375 26.4062 28.4375C21.9189 28.4375 18.2812 32.0752 18.2812 36.5625C18.2812 41.0498 21.9189 44.6875 26.4062 44.6875Z" stroke="white" stroke-width="3" stroke-linecap="round" stroke-linejoin="round"/>
<path d="M13.5586 52.8125C14.7115 50.3809 16.5309 48.3265 18.8051 46.8879C21.0794 45.4493 23.7152 44.6856 26.4062 44.6856C29.0973 44.6856 31.7331 45.4493 34.0074 46.8879C36.2816 48.3265 38.101 50.3809 39.2539 52.8125H54.8438C55.3825 52.8125 55.8991 52.5985 56.2801 52.2176C56.661 51.8366 56.875 51.32 56.875 50.7812V14.2188C56.875 13.68 56.661 13.1634 56.2801 12.7824C55.8991 12.4015 55.3825 12.1875 54.8438 12.1875H10.1562C9.61753 12.1875 9.10087 12.4015 8.71994 12.7824C8.33901 13.1634 8.125 13.68 8.125 14.2188V50.7812C8.125 51.32 8.33901 51.8366 8.71994 52.2176C9.10087 52.5985 9.61753 52.8125 10.1562 52.8125H13.5586Z" stroke="white" stroke-width="3" stroke-linecap="round" stroke-linejoin="round"/>
<path d="M44.6875 44.6875H48.75V20.3125H16.25V24.375" stroke="white" stroke-width="3" stroke-linecap="round" stroke-linejoin="round"/>
</svg>
