<svg width="91" height="44" viewBox="0 0 91 44" fill="none" xmlns="http://www.w3.org/2000/svg">
<line x1="67" y1="21.5" x2="91" y2="21.5" stroke="#DEC8CB"/>
<path d="M46.692 9.592C46.6227 10.476 46.5707 11.3253 46.536 12.14C46.5187 12.9547 46.51 13.5787 46.51 14.012C46.51 14.3933 46.5187 14.7573 46.536 15.104C46.5533 15.4507 46.5707 15.7453 46.588 15.988H45.99C45.7127 14.532 45.3573 13.3793 44.924 12.53C44.508 11.6807 44.0053 11.0827 43.416 10.736C42.8267 10.372 42.1333 10.19 41.336 10.19H40.738V25.036C40.738 25.7293 40.8073 26.2493 40.946 26.596C41.102 26.9427 41.3793 27.1767 41.778 27.298C42.1767 27.402 42.7573 27.4627 43.52 27.48V28C42.9827 27.9827 42.2633 27.9653 41.362 27.948C40.478 27.9307 39.5507 27.922 38.58 27.922C37.6267 27.922 36.7253 27.9307 35.876 27.948C35.0267 27.9653 34.342 27.9827 33.822 28V27.48C34.602 27.4627 35.1913 27.402 35.59 27.298C35.9887 27.1767 36.2573 26.9427 36.396 26.596C36.5347 26.2493 36.604 25.7293 36.604 25.036V10.19H36.032C35.2347 10.19 34.5413 10.372 33.952 10.736C33.3627 11.0827 32.86 11.6807 32.444 12.53C32.028 13.362 31.664 14.5147 31.352 15.988H30.754C30.7887 15.7453 30.806 15.4507 30.806 15.104C30.8233 14.7573 30.832 14.3933 30.832 14.012C30.832 13.5787 30.8147 12.9547 30.78 12.14C30.7627 11.3253 30.7193 10.476 30.65 9.592C31.4473 9.60933 32.314 9.62667 33.25 9.644C34.2033 9.66133 35.1567 9.67 36.11 9.67C37.0633 9.67 37.9213 9.67 38.684 9.67C39.464 9.67 40.322 9.67 41.258 9.67C42.2113 9.67 43.1647 9.66133 44.118 9.644C45.0713 9.62667 45.9293 9.60933 46.692 9.592ZM54.7512 9.254C55.7739 9.254 56.5625 9.36667 57.1172 9.592C57.6719 9.8 58.1485 10.0253 58.5472 10.268C58.7552 10.3893 58.9199 10.4847 59.0412 10.554C59.1799 10.606 59.3099 10.632 59.4312 10.632C59.6045 10.632 59.7259 10.5367 59.7952 10.346C59.8819 10.1553 59.9512 9.86933 60.0032 9.488H60.6012C60.5839 9.81733 60.5579 10.216 60.5232 10.684C60.5059 11.1347 60.4885 11.7327 60.4712 12.478C60.4712 13.2233 60.4712 14.2027 60.4712 15.416H59.8732C59.8039 14.5147 59.5959 13.6393 59.2492 12.79C58.9025 11.9407 58.4085 11.2473 57.7672 10.71C57.1432 10.1553 56.3719 9.878 55.4532 9.878C54.6212 9.878 53.9365 10.112 53.3992 10.58C52.8619 11.048 52.5932 11.698 52.5932 12.53C52.5932 13.2233 52.7665 13.8213 53.1132 14.324C53.4599 14.8093 53.9625 15.286 54.6212 15.754C55.2972 16.222 56.1119 16.7853 57.0652 17.444C57.8972 17.9813 58.6425 18.5187 59.3012 19.056C59.9599 19.5933 60.4885 20.2 60.8872 20.876C61.2859 21.552 61.4852 22.358 61.4852 23.294C61.4852 24.438 61.1819 25.3827 60.5752 26.128C59.9859 26.8733 59.2059 27.4367 58.2352 27.818C57.2645 28.182 56.1985 28.364 55.0372 28.364C53.9625 28.364 53.1045 28.26 52.4632 28.052C51.8219 27.844 51.2845 27.6273 50.8512 27.402C50.4699 27.1593 50.1752 27.038 49.9672 27.038C49.7939 27.038 49.6639 27.1333 49.5772 27.324C49.5079 27.5147 49.4472 27.8007 49.3952 28.182H48.7972C48.8319 27.766 48.8492 27.2807 48.8492 26.726C48.8665 26.1713 48.8752 25.452 48.8752 24.568C48.8925 23.6667 48.9012 22.5313 48.9012 21.162H49.4992C49.5685 22.306 49.7592 23.3807 50.0712 24.386C50.4005 25.374 50.8945 26.1713 51.5532 26.778C52.2292 27.3847 53.1219 27.688 54.2312 27.688C54.8379 27.688 55.3752 27.584 55.8432 27.376C56.3285 27.1507 56.7185 26.8213 57.0132 26.388C57.3079 25.9547 57.4552 25.4173 57.4552 24.776C57.4552 24.048 57.2819 23.4153 56.9352 22.878C56.6059 22.3407 56.1465 21.838 55.5572 21.37C54.9852 20.902 54.3179 20.4253 53.5552 19.94C52.7405 19.4027 51.9779 18.8653 51.2672 18.328C50.5565 17.7907 49.9845 17.1753 49.5512 16.482C49.1352 15.7887 48.9272 14.9653 48.9272 14.012C48.9272 12.92 49.1959 12.0273 49.7332 11.334C50.2879 10.6233 51.0072 10.1033 51.8912 9.774C52.7925 9.42733 53.7459 9.254 54.7512 9.254Z" fill="#DEC8CB"/>
<line y1="21.5" x2="24" y2="21.5" stroke="#DEC8CB"/>
</svg>
