<svg width="54" height="53" viewBox="0 0 54 53" fill="none" xmlns="http://www.w3.org/2000/svg">
<path d="M46.5765 30.9305C46.9252 29.423 47.0944 27.8805 47.0809 26.3344C46.9968 15.3825 37.7908 6.52153 26.6932 6.62504C21.9522 6.67429 17.3802 8.36646 13.7794 11.4047C10.1786 14.4429 7.77893 18.6331 7.0015 23.24C6.22407 27.847 7.1185 32.5765 9.52786 36.5988C11.9372 40.621 15.7076 43.679 20.1775 45.2364C20.9379 45.5062 21.7531 45.5913 22.554 45.4845C23.3549 45.3777 24.1178 45.0821 24.778 44.6229C25.4381 44.1636 25.976 43.5543 26.346 42.8465C26.7161 42.1388 26.9072 41.3535 26.9034 40.5575V39.75C26.9006 39.0968 27.0292 38.4494 27.2817 37.8453C27.5342 37.2413 27.9057 36.6924 28.3746 36.2305C28.8436 35.7686 29.4008 35.4027 30.0141 35.1539C30.6273 34.9052 31.2845 34.7786 31.9477 34.7813H41.6582C42.7993 34.782 43.907 34.4016 44.8003 33.7022C45.6936 33.0028 46.3197 32.0257 46.5765 30.9305V30.9305Z" stroke="white" stroke-width="3" stroke-linecap="round" stroke-linejoin="round"/>
<path d="M26.9034 17.3906C27.832 17.3906 28.5848 16.6491 28.5848 15.7344C28.5848 14.8197 27.832 14.0781 26.9034 14.0781C25.9747 14.0781 25.2219 14.8197 25.2219 15.7344C25.2219 16.6491 25.9747 17.3906 26.9034 17.3906Z" fill="white"/>
<path d="M17.4452 22.7734C18.3738 22.7734 19.1266 22.0319 19.1266 21.1172C19.1266 20.2025 18.3738 19.4609 17.4452 19.4609C16.5165 19.4609 15.7637 20.2025 15.7637 21.1172C15.7637 22.0319 16.5165 22.7734 17.4452 22.7734Z" fill="white"/>
<path d="M17.4452 33.5391C18.3738 33.5391 19.1266 32.7975 19.1266 31.8828C19.1266 30.9681 18.3738 30.2266 17.4452 30.2266C16.5165 30.2266 15.7637 30.9681 15.7637 31.8828C15.7637 32.7975 16.5165 33.5391 17.4452 33.5391Z" fill="white"/>
<path d="M36.3616 22.7734C37.2903 22.7734 38.0431 22.0319 38.0431 21.1172C38.0431 20.2025 37.2903 19.4609 36.3616 19.4609C35.433 19.4609 34.6801 20.2025 34.6801 21.1172C34.6801 22.0319 35.433 22.7734 36.3616 22.7734Z" fill="white"/>
</svg>
