<svg width="209" height="49" viewBox="0 0 209 49" fill="none" xmlns="http://www.w3.org/2000/svg">
<path d="M65.3937 20.496C66.183 20.496 66.871 20.4 67.4577 20.208C68.0443 20.0053 68.5297 19.7227 68.9137 19.36C69.3083 18.9867 69.6017 18.5387 69.7937 18.016C69.9857 17.4827 70.0817 16.8907 70.0817 16.24C70.0817 15.6213 69.9857 15.0613 69.7937 14.56C69.6017 14.0587 69.3137 13.632 68.9297 13.28C68.5457 12.928 68.0603 12.6613 67.4737 12.48C66.887 12.288 66.1937 12.192 65.3937 12.192H62.1777V20.496H65.3937ZM65.3937 8.864C66.9403 8.864 68.279 9.04533 69.4097 9.408C70.5403 9.77067 71.4737 10.2773 72.2097 10.928C72.9457 11.5787 73.4897 12.3573 73.8417 13.264C74.2043 14.1707 74.3857 15.1627 74.3857 16.24C74.3857 17.36 74.199 18.3893 73.8257 19.328C73.4523 20.256 72.8923 21.056 72.1457 21.728C71.399 22.4 70.4603 22.9227 69.3297 23.296C68.2097 23.6693 66.8977 23.856 65.3937 23.856H62.1777V32H57.8737V8.864H65.3937ZM80.5402 18.432C81.0522 17.4507 81.6602 16.6827 82.3642 16.128C83.0682 15.5627 83.9002 15.28 84.8602 15.28C85.6175 15.28 86.2255 15.4453 86.6842 15.776L86.4282 18.736C86.3748 18.928 86.2948 19.0667 86.1882 19.152C86.0922 19.2267 85.9588 19.264 85.7882 19.264C85.6282 19.264 85.3882 19.2373 85.0682 19.184C84.7588 19.1307 84.4548 19.104 84.1562 19.104C83.7188 19.104 83.3295 19.168 82.9882 19.296C82.6468 19.424 82.3375 19.6107 82.0602 19.856C81.7935 20.0907 81.5535 20.3787 81.3402 20.72C81.1375 21.0613 80.9455 21.4507 80.7642 21.888V32H76.8122V15.584H79.1322C79.5375 15.584 79.8202 15.6587 79.9802 15.808C80.1402 15.9467 80.2468 16.2027 80.3002 16.576L80.5402 18.432ZM95.5449 15.328C96.7609 15.328 97.8649 15.5253 98.8569 15.92C99.8596 16.3147 100.713 16.8747 101.417 17.6C102.132 18.3253 102.681 19.2107 103.065 20.256C103.449 21.3013 103.641 22.4693 103.641 23.76C103.641 25.0613 103.449 26.2347 103.065 27.28C102.681 28.3253 102.132 29.216 101.417 29.952C100.713 30.688 99.8596 31.2533 98.8569 31.648C97.8649 32.0427 96.7609 32.24 95.5449 32.24C94.3183 32.24 93.2036 32.0427 92.2009 31.648C91.1983 31.2533 90.3396 30.688 89.6249 29.952C88.9209 29.216 88.3716 28.3253 87.9769 27.28C87.5929 26.2347 87.4009 25.0613 87.4009 23.76C87.4009 22.4693 87.5929 21.3013 87.9769 20.256C88.3716 19.2107 88.9209 18.3253 89.6249 17.6C90.3396 16.8747 91.1983 16.3147 92.2009 15.92C93.2036 15.5253 94.3183 15.328 95.5449 15.328ZM95.5449 29.2C96.9103 29.2 97.9183 28.7413 98.5689 27.824C99.2303 26.9067 99.5609 25.5627 99.5609 23.792C99.5609 22.0213 99.2303 20.672 98.5689 19.744C97.9183 18.816 96.9103 18.352 95.5449 18.352C94.1583 18.352 93.1289 18.8213 92.4569 19.76C91.7956 20.688 91.4649 22.032 91.4649 23.792C91.4649 25.552 91.7956 26.896 92.4569 27.824C93.1289 28.7413 94.1583 29.2 95.5449 29.2ZM110.752 15.584V32.56C110.752 33.2747 110.656 33.9467 110.464 34.576C110.283 35.2053 109.984 35.7547 109.568 36.224C109.163 36.704 108.624 37.0773 107.952 37.344C107.291 37.6213 106.48 37.76 105.52 37.76C105.147 37.76 104.8 37.7333 104.48 37.68C104.16 37.6373 103.829 37.5627 103.488 37.456L103.632 35.328C103.664 35.1147 103.749 34.976 103.888 34.912C104.027 34.8587 104.293 34.832 104.688 34.832C105.083 34.832 105.413 34.7893 105.68 34.704C105.957 34.6293 106.176 34.5013 106.336 34.32C106.496 34.1493 106.608 33.92 106.672 33.632C106.747 33.344 106.784 32.9867 106.784 32.56V15.584H110.752ZM111.296 10.8C111.296 11.1413 111.227 11.4613 111.088 11.76C110.949 12.0587 110.763 12.32 110.528 12.544C110.304 12.768 110.032 12.9493 109.712 13.088C109.403 13.216 109.072 13.28 108.72 13.28C108.379 13.28 108.059 13.216 107.76 13.088C107.461 12.9493 107.2 12.768 106.976 12.544C106.752 12.32 106.571 12.0587 106.432 11.76C106.304 11.4613 106.24 11.1413 106.24 10.8C106.24 10.448 106.304 10.1173 106.432 9.808C106.571 9.49867 106.752 9.232 106.976 9.008C107.2 8.784 107.461 8.608 107.76 8.48C108.059 8.34133 108.379 8.272 108.72 8.272C109.072 8.272 109.403 8.34133 109.712 8.48C110.032 8.608 110.304 8.784 110.528 9.008C110.763 9.232 110.949 9.49867 111.088 9.808C111.227 10.1173 111.296 10.448 111.296 10.8ZM125.357 21.904C125.357 21.392 125.282 20.912 125.133 20.464C124.994 20.0053 124.781 19.6053 124.493 19.264C124.205 18.9227 123.837 18.656 123.389 18.464C122.952 18.2613 122.44 18.16 121.853 18.16C120.712 18.16 119.81 18.4853 119.149 19.136C118.498 19.7867 118.082 20.7093 117.901 21.904H125.357ZM117.821 24.288C117.885 25.1307 118.034 25.8613 118.269 26.48C118.504 27.088 118.813 27.5947 119.197 28C119.581 28.3947 120.034 28.6933 120.557 28.896C121.09 29.088 121.677 29.184 122.317 29.184C122.957 29.184 123.506 29.1093 123.965 28.96C124.434 28.8107 124.84 28.6453 125.181 28.464C125.533 28.2827 125.837 28.1173 126.093 27.968C126.36 27.8187 126.616 27.744 126.861 27.744C127.192 27.744 127.437 27.8667 127.597 28.112L128.733 29.552C128.296 30.064 127.805 30.496 127.261 30.848C126.717 31.1893 126.146 31.4667 125.549 31.68C124.962 31.8827 124.36 32.0267 123.741 32.112C123.133 32.1973 122.541 32.24 121.965 32.24C120.824 32.24 119.762 32.0533 118.781 31.68C117.8 31.296 116.946 30.736 116.221 30C115.496 29.2533 114.925 28.336 114.509 27.248C114.093 26.1493 113.885 24.88 113.885 23.44C113.885 22.32 114.066 21.2693 114.429 20.288C114.792 19.296 115.309 18.4373 115.981 17.712C116.664 16.976 117.49 16.3947 118.461 15.968C119.442 15.5413 120.546 15.328 121.773 15.328C122.808 15.328 123.762 15.4933 124.637 15.824C125.512 16.1547 126.264 16.64 126.893 17.28C127.522 17.9093 128.013 18.688 128.365 19.616C128.728 20.5333 128.909 21.584 128.909 22.768C128.909 23.3653 128.845 23.7707 128.717 23.984C128.589 24.1867 128.344 24.288 127.981 24.288H117.821ZM143.635 19.056C143.517 19.2053 143.4 19.3227 143.283 19.408C143.176 19.4933 143.016 19.536 142.803 19.536C142.6 19.536 142.403 19.4773 142.211 19.36C142.019 19.232 141.789 19.0933 141.523 18.944C141.256 18.784 140.936 18.6453 140.563 18.528C140.2 18.4 139.747 18.336 139.203 18.336C138.509 18.336 137.901 18.464 137.379 18.72C136.856 18.9653 136.419 19.3227 136.067 19.792C135.725 20.2613 135.469 20.832 135.299 21.504C135.128 22.1653 135.043 22.9173 135.043 23.76C135.043 24.6347 135.133 25.4133 135.315 26.096C135.507 26.7787 135.779 27.3547 136.131 27.824C136.483 28.2827 136.909 28.6347 137.411 28.88C137.912 29.1147 138.477 29.232 139.107 29.232C139.736 29.232 140.243 29.1573 140.627 29.008C141.021 28.848 141.352 28.6773 141.619 28.496C141.885 28.304 142.115 28.1333 142.307 27.984C142.509 27.824 142.733 27.744 142.979 27.744C143.299 27.744 143.539 27.8667 143.699 28.112L144.835 29.552C144.397 30.064 143.923 30.496 143.411 30.848C142.899 31.1893 142.365 31.4667 141.811 31.68C141.267 31.8827 140.701 32.0267 140.115 32.112C139.539 32.1973 138.963 32.24 138.387 32.24C137.373 32.24 136.419 32.0533 135.523 31.68C134.627 31.296 133.843 30.7413 133.171 30.016C132.499 29.2907 131.965 28.4053 131.571 27.36C131.187 26.304 130.995 25.104 130.995 23.76C130.995 22.5547 131.165 21.44 131.507 20.416C131.859 19.3813 132.371 18.4907 133.043 17.744C133.715 16.9867 134.547 16.3947 135.539 15.968C136.531 15.5413 137.672 15.328 138.963 15.328C140.189 15.328 141.261 15.5253 142.179 15.92C143.107 16.3147 143.939 16.88 144.675 17.616L143.635 19.056ZM152.784 32.256C151.355 32.256 150.256 31.856 149.488 31.056C148.731 30.2453 148.352 29.1307 148.352 27.712V18.544H146.672C146.459 18.544 146.278 18.4747 146.128 18.336C145.979 18.1973 145.904 17.9893 145.904 17.712V16.144L148.544 15.712L149.376 11.232C149.43 11.0187 149.531 10.8533 149.68 10.736C149.83 10.6187 150.022 10.56 150.256 10.56H152.304V15.728H156.688V18.544H152.304V27.44C152.304 27.952 152.427 28.352 152.672 28.64C152.928 28.928 153.275 29.072 153.712 29.072C153.958 29.072 154.16 29.0453 154.32 28.992C154.491 28.928 154.635 28.864 154.752 28.8C154.88 28.736 154.992 28.6773 155.088 28.624C155.184 28.56 155.28 28.528 155.376 28.528C155.494 28.528 155.59 28.56 155.664 28.624C155.739 28.6773 155.819 28.7627 155.904 28.88L157.088 30.8C156.512 31.28 155.851 31.6427 155.104 31.888C154.358 32.1333 153.584 32.256 152.784 32.256ZM169.234 18.784C169.128 18.9547 169.016 19.0773 168.898 19.152C168.781 19.216 168.632 19.248 168.45 19.248C168.258 19.248 168.05 19.1947 167.826 19.088C167.613 18.9813 167.362 18.864 167.074 18.736C166.786 18.5973 166.456 18.4747 166.082 18.368C165.72 18.2613 165.288 18.208 164.786 18.208C164.008 18.208 163.394 18.3733 162.946 18.704C162.509 19.0347 162.29 19.4667 162.29 20C162.29 20.352 162.402 20.6507 162.626 20.896C162.861 21.1307 163.165 21.3387 163.538 21.52C163.922 21.7013 164.354 21.8667 164.834 22.016C165.314 22.1547 165.8 22.3093 166.29 22.48C166.792 22.6507 167.282 22.848 167.762 23.072C168.242 23.2853 168.669 23.5627 169.042 23.904C169.426 24.2347 169.73 24.6347 169.954 25.104C170.189 25.5733 170.306 26.1387 170.306 26.8C170.306 27.5893 170.162 28.32 169.874 28.992C169.597 29.6533 169.181 30.2293 168.626 30.72C168.072 31.2 167.384 31.5787 166.562 31.856C165.752 32.1227 164.813 32.256 163.746 32.256C163.181 32.256 162.626 32.2027 162.082 32.096C161.549 32 161.032 31.8613 160.53 31.68C160.04 31.4987 159.581 31.2853 159.154 31.04C158.738 30.7947 158.37 30.528 158.05 30.24L158.962 28.736C159.08 28.5547 159.218 28.416 159.378 28.32C159.538 28.224 159.741 28.176 159.986 28.176C160.232 28.176 160.461 28.2453 160.674 28.384C160.898 28.5227 161.154 28.672 161.442 28.832C161.73 28.992 162.066 29.1413 162.45 29.28C162.845 29.4187 163.341 29.488 163.938 29.488C164.408 29.488 164.808 29.4347 165.138 29.328C165.48 29.2107 165.757 29.0613 165.97 28.88C166.194 28.6987 166.354 28.4907 166.45 28.256C166.557 28.0107 166.61 27.76 166.61 27.504C166.61 27.12 166.493 26.8053 166.258 26.56C166.034 26.3147 165.73 26.1013 165.346 25.92C164.973 25.7387 164.541 25.5787 164.05 25.44C163.57 25.2907 163.074 25.1307 162.562 24.96C162.061 24.7893 161.565 24.592 161.074 24.368C160.594 24.1333 160.162 23.84 159.778 23.488C159.405 23.136 159.101 22.704 158.866 22.192C158.642 21.68 158.53 21.0613 158.53 20.336C158.53 19.664 158.664 19.024 158.93 18.416C159.197 17.808 159.586 17.28 160.098 16.832C160.621 16.3733 161.266 16.0107 162.034 15.744C162.813 15.4667 163.709 15.328 164.722 15.328C165.853 15.328 166.882 15.5147 167.81 15.888C168.738 16.2613 169.512 16.752 170.13 17.36L169.234 18.784Z" fill="#5E5556"/>
<path d="M29.8539 1H2.31154C1.5872 1 1 1.58398 1 2.30435V29.6957C1 30.416 1.5872 31 2.31154 31H29.8539C30.5782 31 31.1654 30.416 31.1654 29.6957V2.30435C31.1654 1.58398 30.5782 1 29.8539 1Z" stroke="#E38898" stroke-width="2" stroke-linecap="round" stroke-linejoin="round"/>
<path d="M38.9035 16H11.3612C10.6368 16 10.0496 16.584 10.0496 17.3043V44.6957C10.0496 45.416 10.6368 46 11.3612 46H38.9035C39.6278 46 40.215 45.416 40.215 44.6957V17.3043C40.215 16.584 39.6278 16 38.9035 16Z" stroke="#E38898" stroke-width="2" stroke-linecap="round" stroke-linejoin="round"/>
<line y1="-1" x2="91.5052" y2="-1" transform="matrix(-0.999961 0.00881878 -0.00891628 -0.99996 169.926 40)" stroke="#E38898" stroke-width="2"/>
</svg>
