<svg width="212" height="49" viewBox="0 0 212 49" fill="none" xmlns="http://www.w3.org/2000/svg">
<path d="M71.5969 13.072C71.4689 13.296 71.3302 13.4613 71.1809 13.568C71.0422 13.664 70.8662 13.712 70.6529 13.712C70.4289 13.712 70.1835 13.632 69.9169 13.472C69.6609 13.3013 69.3515 13.1147 68.9889 12.912C68.6262 12.7093 68.1995 12.528 67.7089 12.368C67.2289 12.1973 66.6582 12.112 65.9969 12.112C65.3995 12.112 64.8769 12.1867 64.4289 12.336C63.9809 12.4747 63.6022 12.672 63.2929 12.928C62.9942 13.184 62.7702 13.4933 62.6209 13.856C62.4715 14.208 62.3969 14.5973 62.3969 15.024C62.3969 15.568 62.5462 16.0213 62.8449 16.384C63.1542 16.7467 63.5595 17.056 64.0609 17.312C64.5622 17.568 65.1329 17.7973 65.7729 18C66.4129 18.2027 67.0689 18.4213 67.7409 18.656C68.4129 18.88 69.0689 19.1467 69.7089 19.456C70.3489 19.7547 70.9195 20.1387 71.4209 20.608C71.9222 21.0667 72.3222 21.632 72.6209 22.304C72.9302 22.976 73.0849 23.792 73.0849 24.752C73.0849 25.7973 72.9035 26.7787 72.5409 27.696C72.1889 28.6027 71.6662 29.3973 70.9729 30.08C70.2902 30.752 69.4529 31.2853 68.4609 31.68C67.4689 32.064 66.3329 32.256 65.0529 32.256C64.3169 32.256 63.5915 32.1813 62.8769 32.032C62.1622 31.8933 61.4742 31.6907 60.8129 31.424C60.1622 31.1573 59.5489 30.8373 58.9729 30.464C58.3969 30.0907 57.8849 29.6747 57.4369 29.216L58.7009 27.152C58.8075 27.0027 58.9462 26.88 59.1169 26.784C59.2875 26.6773 59.4689 26.624 59.6609 26.624C59.9275 26.624 60.2155 26.736 60.5249 26.96C60.8342 27.1733 61.2022 27.4133 61.6289 27.68C62.0555 27.9467 62.5515 28.192 63.1169 28.416C63.6929 28.6293 64.3809 28.736 65.1809 28.736C66.4075 28.736 67.3569 28.448 68.0289 27.872C68.7009 27.2853 69.0369 26.448 69.0369 25.36C69.0369 24.752 68.8822 24.256 68.5729 23.872C68.2742 23.488 67.8742 23.168 67.3729 22.912C66.8715 22.6453 66.3009 22.4213 65.6609 22.24C65.0209 22.0587 64.3702 21.8613 63.7089 21.648C63.0475 21.4347 62.3969 21.1787 61.7569 20.88C61.1169 20.5813 60.5462 20.192 60.0449 19.712C59.5435 19.232 59.1382 18.6347 58.8289 17.92C58.5302 17.1947 58.3809 16.304 58.3809 15.248C58.3809 14.4053 58.5462 13.584 58.8769 12.784C59.2182 11.984 59.7089 11.2747 60.3489 10.656C60.9889 10.0373 61.7782 9.54133 62.7169 9.168C63.6555 8.79467 64.7329 8.608 65.9489 8.608C67.3142 8.608 68.5729 8.82133 69.7249 9.248C70.8769 9.67467 71.8582 10.272 72.6689 11.04L71.5969 13.072ZM79.9486 8.224V21.84H80.6846C80.9513 21.84 81.1593 21.808 81.3086 21.744C81.4686 21.6693 81.6286 21.5253 81.7886 21.312L85.8686 16.272C86.0393 16.048 86.226 15.8773 86.4286 15.76C86.642 15.6427 86.914 15.584 87.2446 15.584H90.8606L85.7566 21.68C85.394 22.16 84.9993 22.528 84.5726 22.784C84.7966 22.944 84.994 23.1307 85.1646 23.344C85.346 23.5573 85.5166 23.7867 85.6766 24.032L91.1486 32H87.5806C87.2713 32 87.0046 31.952 86.7806 31.856C86.5566 31.7493 86.37 31.5627 86.2206 31.296L82.0286 25.072C81.8793 24.8267 81.7246 24.6667 81.5646 24.592C81.4046 24.5173 81.1646 24.48 80.8446 24.48H79.9486V32H75.9966V8.224H79.9486ZM97.1864 15.584V32H93.2184V15.584H97.1864ZM97.7304 10.8C97.7304 11.1413 97.661 11.4613 97.5224 11.76C97.3837 12.0587 97.197 12.32 96.9624 12.544C96.7384 12.768 96.4717 12.9493 96.1624 13.088C95.853 13.216 95.5224 13.28 95.1704 13.28C94.829 13.28 94.5037 13.216 94.1944 13.088C93.8957 12.9493 93.6344 12.768 93.4104 12.544C93.1864 12.32 93.005 12.0587 92.8664 11.76C92.7384 11.4613 92.6744 11.1413 92.6744 10.8C92.6744 10.448 92.7384 10.1173 92.8664 9.808C93.005 9.49867 93.1864 9.232 93.4104 9.008C93.6344 8.784 93.8957 8.608 94.1944 8.48C94.5037 8.34133 94.829 8.272 95.1704 8.272C95.5224 8.272 95.853 8.34133 96.1624 8.48C96.4717 8.608 96.7384 8.784 96.9624 9.008C97.197 9.232 97.3837 9.49867 97.5224 9.808C97.661 10.1173 97.7304 10.448 97.7304 10.8ZM105.215 8.224V32H101.263V8.224H105.215ZM113.153 8.224V32H109.201V8.224H113.153ZM127.106 18.784C127 18.9547 126.888 19.0773 126.77 19.152C126.653 19.216 126.504 19.248 126.322 19.248C126.13 19.248 125.922 19.1947 125.698 19.088C125.485 18.9813 125.234 18.864 124.946 18.736C124.658 18.5973 124.328 18.4747 123.954 18.368C123.592 18.2613 123.16 18.208 122.658 18.208C121.88 18.208 121.266 18.3733 120.818 18.704C120.381 19.0347 120.162 19.4667 120.162 20C120.162 20.352 120.274 20.6507 120.498 20.896C120.733 21.1307 121.037 21.3387 121.41 21.52C121.794 21.7013 122.226 21.8667 122.706 22.016C123.186 22.1547 123.672 22.3093 124.162 22.48C124.664 22.6507 125.154 22.848 125.634 23.072C126.114 23.2853 126.541 23.5627 126.914 23.904C127.298 24.2347 127.602 24.6347 127.826 25.104C128.061 25.5733 128.178 26.1387 128.178 26.8C128.178 27.5893 128.034 28.32 127.746 28.992C127.469 29.6533 127.053 30.2293 126.498 30.72C125.944 31.2 125.256 31.5787 124.434 31.856C123.624 32.1227 122.685 32.256 121.618 32.256C121.053 32.256 120.498 32.2027 119.954 32.096C119.421 32 118.904 31.8613 118.402 31.68C117.912 31.4987 117.453 31.2853 117.026 31.04C116.61 30.7947 116.242 30.528 115.922 30.24L116.834 28.736C116.952 28.5547 117.09 28.416 117.25 28.32C117.41 28.224 117.613 28.176 117.858 28.176C118.104 28.176 118.333 28.2453 118.546 28.384C118.77 28.5227 119.026 28.672 119.314 28.832C119.602 28.992 119.938 29.1413 120.322 29.28C120.717 29.4187 121.213 29.488 121.81 29.488C122.28 29.488 122.68 29.4347 123.01 29.328C123.352 29.2107 123.629 29.0613 123.842 28.88C124.066 28.6987 124.226 28.4907 124.322 28.256C124.429 28.0107 124.482 27.76 124.482 27.504C124.482 27.12 124.365 26.8053 124.13 26.56C123.906 26.3147 123.602 26.1013 123.218 25.92C122.845 25.7387 122.413 25.5787 121.922 25.44C121.442 25.2907 120.946 25.1307 120.434 24.96C119.933 24.7893 119.437 24.592 118.946 24.368C118.466 24.1333 118.034 23.84 117.65 23.488C117.277 23.136 116.973 22.704 116.738 22.192C116.514 21.68 116.402 21.0613 116.402 20.336C116.402 19.664 116.536 19.024 116.802 18.416C117.069 17.808 117.458 17.28 117.97 16.832C118.493 16.3733 119.138 16.0107 119.906 15.744C120.685 15.4667 121.581 15.328 122.594 15.328C123.725 15.328 124.754 15.5147 125.682 15.888C126.61 16.2613 127.384 16.752 128.002 17.36L127.106 18.784Z" fill="#5E5556"/>
<path d="M31.0114 1H3.20311C2.47177 1 1.87891 1.58398 1.87891 2.30435V29.6957C1.87891 30.416 2.47177 31 3.20311 31H31.0114C31.7427 31 32.3356 30.416 32.3356 29.6957V2.30435C32.3356 1.58398 31.7427 1 31.0114 1Z" stroke="#E38898" stroke-width="2" stroke-linecap="round" stroke-linejoin="round"/>
<path d="M40.1483 16H12.3401C11.6087 16 11.0159 16.584 11.0159 17.3043V44.6957C11.0159 45.416 11.6087 46 12.3401 46H40.1483C40.8797 46 41.4725 45.416 41.4725 44.6957V17.3043C41.4725 16.584 40.8797 16 40.1483 16Z" stroke="#E38898" stroke-width="2" stroke-linecap="round" stroke-linejoin="round"/>
<line y1="-1" x2="92.3887" y2="-1" transform="matrix(-0.999962 0.00873445 -0.00900236 -0.99996 151.117 40)" stroke="#E38898" stroke-width="2"/>
</svg>
