<svg width="46" height="45" viewBox="0 0 46 45" fill="none" xmlns="http://www.w3.org/2000/svg">
<path d="M18.5596 5.625V16.4883C18.5578 16.7411 18.4903 16.9893 18.3633 17.209L7.01339 35.8418C6.88458 36.0544 6.81502 36.2966 6.81174 36.5442C6.80845 36.7917 6.87156 37.0357 6.99469 37.2515C7.11781 37.4673 7.29659 37.6473 7.51295 37.7732C7.72931 37.8992 7.97559 37.9666 8.2269 37.9688H37.4581C37.7095 37.9666 37.9557 37.8992 38.1721 37.7732C38.3885 37.6473 38.5672 37.4673 38.6904 37.2515C38.8135 37.0357 38.8766 36.7917 38.8733 36.5442C38.87 36.2966 38.8005 36.0544 38.6717 35.8418L27.3218 17.209C27.1948 16.9893 27.1272 16.7411 27.1255 16.4883V5.625" stroke="white" stroke-width="3" stroke-linecap="round" stroke-linejoin="round"/>
<path d="M15.7042 5.625H29.9808" stroke="white" stroke-width="3" stroke-linecap="round" stroke-linejoin="round"/>
<path d="M11.1714 29.0039C13.2772 27.4746 16.8999 26.6133 22.8425 29.5313C29.2134 32.6777 32.9253 31.4297 34.9597 29.7246" stroke="white" stroke-width="3" stroke-linecap="round" stroke-linejoin="round"/>
</svg>
